<svg width="163" height="163" viewBox="0 0 163 163" fill="#0F6FDE" xmlns="http://www.w3.org/2000/svg">
<path d="M93.6904 152.337H69.3216C67.6287 152.337 66.1473 151.857 64.8775 150.897C63.6078 149.937 62.9163 148.598 62.8031 146.877L60.127 130.142C58.37 129.517 56.4217 128.595 54.2821 127.377C52.1425 126.159 50.3209 124.955 48.8174 123.764L33.4402 130.854C32.0007 131.674 30.4412 131.787 28.7618 131.194C27.0823 130.601 25.8193 129.514 24.9727 127.935L12.7884 105.984C11.8016 104.544 11.5481 103.034 12.028 101.455C12.5079 99.8747 13.3975 98.605 14.6967 97.6453L28.6675 87.24C28.5543 86.5018 28.4762 85.5304 28.4332 84.3258C28.3901 83.1213 28.3685 82.0934 28.3685 81.2419C28.3685 80.4766 28.3901 79.5268 28.4332 78.3925C28.4762 77.258 28.5543 76.2516 28.6675 75.3731L14.6967 65.2261C13.3112 64.2394 12.4216 62.9414 12.028 61.332C11.6343 59.7227 11.8742 58.1847 12.7479 56.7181L24.9727 34.8963C25.9325 33.4566 27.2022 32.4471 28.782 31.8677C30.3618 31.2881 31.9146 31.3515 33.4402 32.0577L48.6403 39.1078C50.1167 37.971 51.9462 36.7719 54.129 35.5107C56.3116 34.2496 58.3109 33.3066 60.127 32.6815L62.8031 15.9534C62.9163 14.2604 63.6146 12.9272 64.8978 11.954C66.1811 10.9808 67.6557 10.4941 69.3216 10.4941H93.6904C95.3563 10.4941 96.8309 10.9808 98.1142 11.954C99.3975 12.9272 100.152 14.2604 100.379 15.9534L102.885 32.6409C104.755 33.266 106.796 34.209 109.009 35.4701C111.221 36.7312 113.036 37.9438 114.453 39.1078L129.572 32.0171C131.011 31.3109 132.571 31.2543 134.25 31.8473C135.93 32.4403 137.193 33.4566 138.039 34.8963L150.305 56.5483C151.178 58.0149 151.418 59.5812 151.025 61.2471C150.631 62.9131 149.784 64.2394 148.485 65.2261L134.175 75.1221C134.288 76.1138 134.408 77.2051 134.534 78.396C134.661 79.5871 134.725 80.6218 134.725 81.5003C134.725 82.3788 134.661 83.3853 134.534 84.5197C134.408 85.6541 134.331 86.6605 134.304 87.539L148.356 97.6047C149.655 98.7046 150.517 100.038 150.94 101.604C151.363 103.17 151.151 104.687 150.305 106.153L138.039 128.104C137.08 129.684 135.788 130.742 134.165 131.279C132.542 131.815 131.011 131.674 129.572 130.854L114.195 123.764C112.691 124.955 110.884 126.188 108.774 127.462C106.664 128.737 104.758 129.63 103.055 130.142L100.379 146.877C100.152 148.598 99.3975 149.937 98.1142 150.897C96.8309 151.857 95.3563 152.337 93.6904 152.337ZM81.3362 105.131C87.9384 105.131 93.5489 102.822 98.1677 98.2027C102.787 93.5838 105.096 87.9733 105.096 81.3711C105.096 74.796 102.787 69.1923 98.1677 64.5599C93.5489 59.9275 87.9384 57.6113 81.3362 57.6113C74.707 57.6113 69.0897 59.9275 64.4844 64.5599C59.8791 69.1923 57.5764 74.796 57.5764 81.3711C57.5764 87.9733 59.8791 93.5838 64.4844 98.2027C69.0897 102.822 74.707 105.131 81.3362 105.131Z"/>
</svg>
