<svg width="163" height="163" viewBox="0 0 163 163" fill="#0F6FDE" xmlns="http://www.w3.org/2000/svg">
<path d="M38.6564 122.508H80.4473V119.784C80.4473 117.62 79.8948 115.69 78.7899 113.997C77.6851 112.304 76.3036 111.205 74.6453 110.701C70.8538 109.382 67.9205 108.512 65.8457 108.093C63.771 107.673 61.8145 107.463 59.9763 107.463C57.9118 107.463 55.6479 107.74 53.1847 108.292C50.7214 108.844 47.8756 109.63 44.6472 110.649C42.8743 111.305 41.4327 112.433 40.3223 114.034C39.2117 115.636 38.6564 117.552 38.6564 119.784V122.508ZM101.291 111.132H121.408C122.772 111.132 123.899 110.687 124.791 109.797C125.683 108.906 126.129 107.78 126.129 106.418C126.129 105.057 125.683 103.928 124.791 103.033C123.899 102.138 122.772 101.69 121.408 101.69H101.291C99.9273 101.69 98.7995 102.136 97.9078 103.026C97.016 103.916 96.5702 105.042 96.5702 106.404C96.5702 107.766 97.016 108.895 97.9078 109.79C98.7995 110.685 99.9273 111.132 101.291 111.132ZM59.9566 101.69C62.6889 101.69 64.9827 100.769 66.8381 98.9271C68.6935 97.0847 69.6212 94.7974 69.6212 92.0651C69.6212 89.3329 68.7063 87.0392 66.8765 85.1838C65.0466 83.3283 62.7598 82.4006 60.0162 82.4006C57.2976 82.4006 55.0039 83.3155 53.1349 85.1454C51.266 86.9753 50.3315 89.262 50.3315 92.0055C50.3315 94.7242 51.2526 97.0181 53.0948 98.887C54.9372 100.756 57.2245 101.69 59.9566 101.69ZM101.42 91.5989H121.448C122.715 91.5989 123.811 91.1284 124.738 90.1874C125.665 89.2463 126.129 88.076 126.129 86.6766C126.129 85.4205 125.663 84.3317 124.732 83.4102C123.801 82.4886 122.706 82.0279 121.448 82.0279H101.42C100.022 82.0279 98.8638 82.4965 97.9463 83.4336C97.0289 84.3708 96.5702 85.5012 96.5702 86.8247C96.5702 88.1374 97.0282 89.2612 97.9443 90.1962C98.8605 91.1313 100.019 91.5989 101.42 91.5989ZM24.1355 152.336C20.6553 152.336 17.5977 151.019 14.9625 148.384C12.3273 145.749 11.0098 142.691 11.0098 139.211V57.8361C11.0098 54.3448 12.3273 51.2776 14.9625 48.6346C17.5977 45.9915 20.6553 44.67 24.1355 44.67H63.6454V22.9292C63.6454 19.5856 64.8805 16.6704 67.3507 14.1835C69.821 11.6967 72.7745 10.4532 76.2115 10.4532H86.8481C90.2381 10.4532 93.1766 11.6967 95.6635 14.1835C98.1504 16.6704 99.3938 19.5856 99.3938 22.9292V44.67H138.863C142.354 44.67 145.422 45.9915 148.065 48.6346C150.708 51.2776 152.029 54.3448 152.029 57.8361V139.211C152.029 142.691 150.708 145.749 148.065 148.384C145.422 151.019 142.354 152.336 138.863 152.336H24.1355ZM76.4867 59.4529H86.5525V23.2947H76.4867V59.4529Z"/>
</svg>
