<svg width="163" height="163" viewBox="0 0 163 163" fill="#0F6FDE" xmlns="http://www.w3.org/2000/svg">
<path d="M49.8818 121.366C51.6205 121.366 53.1213 120.731 54.3839 119.462C55.6466 118.193 56.2779 116.617 56.2779 114.735V73.8615C56.2779 72.1056 55.6344 70.5929 54.3473 69.3236C53.0602 68.0543 51.5517 67.4196 49.8219 67.4196C47.9359 67.4196 46.3617 68.0543 45.0992 69.3236C43.8365 70.5929 43.2052 72.1056 43.2052 73.8615V114.735C43.2052 116.617 43.8443 118.193 45.1224 119.462C46.4005 120.731 47.9869 121.366 49.8818 121.366ZM82.087 121.366C83.8559 121.366 85.3641 120.731 86.6118 119.462C87.8593 118.193 88.4831 116.617 88.4831 114.735V48.9609C88.4831 47.205 87.847 45.6923 86.5749 44.423C85.303 43.1537 83.787 42.519 82.0271 42.519C80.1411 42.519 78.5669 43.1537 77.3044 44.423C76.0417 45.6923 75.4104 47.205 75.4104 48.9609V114.735C75.4104 116.617 76.0495 118.193 77.3276 119.462C78.6056 120.731 80.1921 121.366 82.087 121.366ZM114.207 121.366C115.937 121.366 117.441 120.731 118.718 119.462C119.996 118.193 120.635 116.617 120.635 114.735V97.961C120.635 96.2231 119.988 94.715 118.695 93.4367C117.402 92.1583 115.886 91.5191 114.147 91.5191C112.252 91.5191 110.681 92.1583 109.433 93.4367C108.186 94.715 107.562 96.2231 107.562 97.961V114.735C107.562 116.617 108.198 118.193 109.47 119.462C110.742 120.731 112.321 121.366 114.207 121.366ZM25.6092 152.84C21.701 152.84 18.2891 151.382 15.3734 148.467C12.4578 145.551 11 142.139 11 138.231V25.6543C11 21.7337 12.4578 18.3111 15.3734 15.3867C18.2891 12.4622 21.701 11 25.6092 11H138.186C142.106 11 145.529 12.4622 148.453 15.3867C151.378 18.3111 152.84 21.7337 152.84 25.6543V138.231C152.84 142.139 151.378 145.551 148.453 148.467C145.529 151.382 142.106 152.84 138.186 152.84H25.6092Z"/>
</svg>
