<svg width="163" height="163" viewBox="0 0 163 163" fill="#0F6FDE" xmlns="http://www.w3.org/2000/svg">
<path d="M117.625 100.129C112.572 100.129 108.361 98.4582 104.995 95.1159C101.629 91.7736 99.9459 87.6039 99.9459 82.6067C99.9459 77.5823 101.617 73.387 104.959 70.0207C108.302 66.6545 112.472 64.9715 117.469 64.9715C122.493 64.9715 126.682 66.6528 130.034 70.0155C133.387 73.3781 135.063 77.523 135.063 82.45C135.063 87.5039 133.389 91.7139 130.04 95.0801C126.691 98.4463 122.552 100.129 117.625 100.129ZM89.0166 140.927C87.1493 140.927 85.596 140.323 84.3568 139.115C83.1177 137.907 82.4981 136.34 82.4981 134.414V130.835C82.4981 127.531 83.2191 124.713 84.6611 122.381C86.1031 120.05 88.1002 118.22 90.6525 116.893C94.8138 114.824 99.1618 113.253 103.697 112.177C108.231 111.102 112.834 110.564 117.505 110.564C122.202 110.564 126.777 111.102 131.228 112.177C135.679 113.253 140.046 114.839 144.328 116.935C146.872 118.234 148.879 120.05 150.348 122.381C151.817 124.713 152.552 127.531 152.552 130.835V134.414C152.552 136.34 151.926 137.907 150.673 139.115C149.42 140.323 147.86 140.927 145.993 140.927H89.0166ZM67.6559 80.0681C59.4585 80.0681 52.7787 77.487 47.6164 72.3246C42.4541 67.1624 39.8729 60.4826 39.8729 52.2851C39.8729 44.0605 42.4541 37.3739 47.6164 32.2251C52.7787 27.0763 59.4585 24.502 67.6559 24.502C75.8805 24.502 82.5807 27.0763 87.7565 32.2251C92.9324 37.3739 95.5203 44.0605 95.5203 52.2851C95.5203 60.4826 92.9324 67.1624 87.7565 72.3246C82.5807 77.487 75.8805 80.0681 67.6559 80.0681ZM17.0101 140.927C15.1699 140.927 13.6302 140.323 12.3909 139.115C11.1518 137.907 10.5322 136.352 10.5322 134.45V122.815C10.5322 118.066 11.5565 113.853 13.6049 110.177C15.6535 106.5 18.6428 103.786 22.5727 102.034C30.8088 98.4389 38.5562 95.7856 45.8148 94.0741C53.0735 92.3627 60.3545 91.507 67.6578 91.507C70.3462 91.507 72.9534 91.5839 75.4794 91.7376C78.0053 91.8914 79.6915 92.0385 80.538 92.1787V100.787C79.5353 101.372 78.7667 101.935 78.2321 102.476C77.6974 103.018 77.1224 103.749 76.507 104.67C74.8708 107.512 73.9641 109.932 73.7869 111.932C73.6098 113.931 73.5212 119.221 73.5212 127.802V140.927H17.0101Z"/>
</svg>
