<svg width="163" height="163" viewBox="0 0 163 163" fill="#0F6FDE" xmlns="http://www.w3.org/2000/svg">
<path d="M82.5066 110.646C90.9288 110.646 98.0787 107.699 103.956 101.803C109.834 95.9074 112.772 88.7485 112.772 80.3263C112.772 71.9041 109.825 64.7542 103.929 58.8767C98.0334 52.9992 90.8745 50.0604 82.4523 50.0604C74.03 50.0604 66.8801 53.0082 61.0026 58.9038C55.1251 64.7995 52.1864 71.9584 52.1864 80.3806C52.1864 88.8029 55.1342 95.9527 61.0298 101.83C66.9254 107.708 74.0844 110.646 82.5066 110.646ZM82.429 98.8497C77.3433 98.8497 72.9975 97.0301 69.3917 93.3907C65.786 89.7514 63.9832 85.3889 63.9832 80.303C63.9832 75.2173 65.8028 70.8716 69.4421 67.2657C73.0815 63.66 77.444 61.8572 82.5298 61.8572C87.6156 61.8572 91.9613 63.6769 95.5671 67.3162C99.1728 70.9555 100.976 75.3181 100.976 80.4039C100.976 85.4896 99.156 89.8354 95.5167 93.4412C91.8774 97.0469 87.5148 98.8497 82.429 98.8497ZM82.4794 134.041C66.482 134.041 51.8719 129.742 38.6491 121.144C25.4263 112.546 15.1442 101.114 7.80301 86.8478C7.25311 86.0034 6.86361 85.0162 6.6345 83.8861C6.40551 82.7561 6.29102 81.5965 6.29102 80.4073C6.29102 79.2182 6.40551 78.0385 6.6345 76.8683C6.86361 75.6981 7.25317 74.6249 7.80318 73.6487C15.1437 59.5308 25.4256 48.1709 38.6487 39.569C51.8718 30.967 66.482 26.666 82.4794 26.666C98.4769 26.666 113.087 30.967 126.31 39.569C139.533 48.1709 149.815 59.5308 157.156 73.6487C157.706 74.6249 158.095 75.678 158.324 76.808C158.553 77.9381 158.668 79.0977 158.668 80.2869C158.668 81.476 158.553 82.6557 158.324 83.8259C158.095 84.9961 157.706 86.0034 157.156 86.8478C149.815 101.114 139.533 112.546 126.31 121.144C113.087 129.742 98.4769 134.041 82.4794 134.041Z"/>
</svg>
